<svg width="50" height="50" viewBox="0 0 50 50" fill="none" xmlns="http://www.w3.org/2000/svg">
<circle cx="25" cy="25" r="25" fill="#F4B436"/>
<path fill-rule="evenodd" clip-rule="evenodd" d="M20.8576 20.3367C20.9155 20.2506 20.9799 20.1452 21.062 20.0031C21.108 19.9234 21.2759 19.6268 21.3033 19.5789C21.9816 18.3936 22.4746 17.8496 23.3636 17.8496H26.6364C27.5254 17.8496 28.0184 18.3936 28.6967 19.5789C28.7241 19.6268 28.892 19.9234 28.938 20.0031C29.0201 20.1452 29.0845 20.2506 29.1424 20.3367C29.1807 20.3934 29.2141 20.4385 29.2413 20.4718H31.5455C32.9011 20.4718 34 21.6458 34 23.094V30.9605C34 32.4087 32.9011 33.5827 31.5455 33.5827H18.4545C17.0989 33.5827 16 32.4087 16 30.9605V23.094C16 21.6458 17.0989 20.4718 18.4545 20.4718H20.7587C20.7859 20.4385 20.8193 20.3934 20.8576 20.3367ZM18.4545 22.2199C18.0027 22.2199 17.6364 22.6113 17.6364 23.094V30.9605C17.6364 31.4433 18.0027 31.8346 18.4545 31.8346H31.5455C31.9973 31.8346 32.3636 31.4433 32.3636 30.9605V23.094C32.3636 22.6113 31.9973 22.2199 31.5455 22.2199H29.0909C28.5474 22.2199 28.1808 21.9021 27.814 21.3575C27.7297 21.2321 27.6461 21.0953 27.5455 20.9212C27.4947 20.8332 27.3243 20.5322 27.3006 20.4907C26.9305 19.844 26.7073 19.5977 26.6364 19.5977H23.3636C23.2927 19.5977 23.0695 19.844 22.6994 20.4907C22.6757 20.5322 22.5053 20.8332 22.4545 20.9212C22.3539 21.0953 22.2703 21.2321 22.186 21.3575C21.8192 21.9021 21.4526 22.2199 20.9091 22.2199H18.4545ZM30.7273 24.8421C31.1791 24.8421 31.5455 24.4508 31.5455 23.968C31.5455 23.4853 31.1791 23.094 30.7273 23.094C30.2754 23.094 29.9091 23.4853 29.9091 23.968C29.9091 24.4508 30.2754 24.8421 30.7273 24.8421ZM25 30.9605C22.7407 30.9605 20.9091 29.0039 20.9091 26.5902C20.9091 24.1766 22.7407 22.2199 25 22.2199C27.2593 22.2199 29.0909 24.1766 29.0909 26.5902C29.0909 29.0039 27.2593 30.9605 25 30.9605ZM25 29.2124C26.3556 29.2124 27.4545 28.0384 27.4545 26.5902C27.4545 25.142 26.3556 23.968 25 23.968C23.6444 23.968 22.5455 25.142 22.5455 26.5902C22.5455 28.0384 23.6444 29.2124 25 29.2124Z" fill="white"/>
</svg>
